<?xml version="1.0" encoding="UTF-8"?>
<!DOCTYPE svg PUBLIC "-//W3C//DTD SVG 1.1//EN" "http://www.w3.org/Graphics/SVG/1.1/DTD/svg11.dtd">
<!-- Creator: CorelDRAW 2020 (64-Bit) -->
<svg xmlns="http://www.w3.org/2000/svg" xml:space="preserve" width="3.83845in" height="0.54311in" version="1.1" style="shape-rendering:geometricPrecision; text-rendering:geometricPrecision; image-rendering:optimizeQuality; fill-rule:evenodd; clip-rule:evenodd"
viewBox="0 0 892.46 126.28"
 xmlns:xlink="http://www.w3.org/1999/xlink"
 xmlns:xodm="http://www.corel.com/coreldraw/odm/2003">
 <defs>
  <style type="text/css">
   <![CDATA[
    .fil0 {fill:#4D4D4D;fill-rule:nonzero}
    .fil1 {fill:#F2ADFE;fill-rule:nonzero}
   ]]>
  </style>
 </defs>
 <g id="Layer_x0020_1">
  <metadata id="CorelCorpID_0Corel-Layer"/>
  <g id="_1466078952384">
   <path class="fil0" d="M43.11 100.39c-8.36,0 -15.8,-1.6 -22.29,-4.8 -6.5,-3.2 -11.59,-7.67 -15.28,-13.42 -3.69,-5.74 -5.54,-12.3 -5.54,-19.69 0,-7.38 1.85,-13.92 5.54,-19.62 3.69,-5.7 8.79,-10.14 15.28,-13.35 6.5,-3.2 13.92,-4.8 22.29,-4.8 8.9,0 16.51,1.91 22.83,5.74 6.32,3.83 10.68,9.12 13.08,15.89l-23.36 11.48c-1.51,-3.38 -3.36,-5.83 -5.54,-7.34 -2.18,-1.51 -4.56,-2.27 -7.14,-2.27 -2.23,0 -4.3,0.53 -6.21,1.6 -1.91,1.07 -3.43,2.65 -4.54,4.74 -1.11,2.09 -1.67,4.74 -1.67,7.94 0,3.2 0.56,5.87 1.67,8.01 1.11,2.14 2.62,3.74 4.54,4.8 1.91,1.07 3.98,1.6 6.21,1.6 2.58,0 4.96,-0.76 7.14,-2.27 2.18,-1.51 4.03,-3.96 5.54,-7.34l23.36 11.48c-2.41,6.76 -6.76,12.06 -13.08,15.89 -6.32,3.83 -13.92,5.74 -22.83,5.74l0 -0.01zm80.76 0c-8.28,0 -15.6,-1.62 -21.96,-4.87 -6.36,-3.25 -11.37,-7.72 -15.02,-13.42 -3.65,-5.69 -5.47,-12.23 -5.47,-19.62 0,-7.38 1.83,-13.92 5.47,-19.62 3.65,-5.7 8.65,-10.14 15.02,-13.35 6.36,-3.2 13.68,-4.8 21.96,-4.8 8.28,0 15.62,1.6 22.02,4.8 6.41,3.2 11.41,7.65 15.02,13.35 3.6,5.7 5.4,12.23 5.4,19.62 0,7.38 -1.8,13.92 -5.4,19.62 -3.6,5.7 -8.61,10.17 -15.02,13.42 -6.41,3.25 -13.75,4.87 -22.02,4.87zm0 -23.49c2.23,0 4.23,-0.53 6.01,-1.6 1.78,-1.07 3.2,-2.69 4.27,-4.87 1.07,-2.18 1.6,-4.83 1.6,-7.94 0,-3.2 -0.53,-5.85 -1.6,-7.94 -1.07,-2.09 -2.49,-3.67 -4.27,-4.74 -1.78,-1.07 -3.78,-1.6 -6.01,-1.6 -2.23,0 -4.23,0.53 -6.01,1.6 -1.78,1.07 -3.2,2.65 -4.27,4.74 -1.07,2.09 -1.6,4.74 -1.6,7.94 0,3.11 0.53,5.76 1.6,7.94 1.07,2.18 2.49,3.8 4.27,4.87 1.78,1.07 3.78,1.6 6.01,1.6zm82.36 23.49c-5.78,0 -11.01,-1.18 -15.68,-3.54 -4.67,-2.36 -8.34,-6.05 -11.01,-11.08 -2.67,-5.03 -4,-11.5 -4,-19.42l0 -40.31 30.17 0 0 35.1c0,5.16 0.84,8.77 2.53,10.81 1.69,2.04 4.01,3.07 6.94,3.07 1.78,0 3.45,-0.47 5,-1.4 1.56,-0.93 2.82,-2.5 3.8,-4.67 0.98,-2.18 1.47,-5.05 1.47,-8.61l0 -34.31 30.17 0 0 73.01 -28.7 0 0 -21.09 5.74 5.74c-2.58,5.7 -6.25,9.9 -11.01,12.61 -4.76,2.71 -9.9,4.07 -15.42,4.07l0 0.01zm62.74 -1.33l0 -73.01 28.7 0 0 22.02 -4.67 -6.27c2.23,-5.7 5.78,-9.97 10.68,-12.81 4.89,-2.85 10.77,-4.27 17.62,-4.27l0 26.7c-1.33,-0.18 -2.51,-0.31 -3.54,-0.4 -1.02,-0.09 -2.07,-0.14 -3.14,-0.14 -4.54,0 -8.25,1.18 -11.15,3.54 -2.89,2.36 -4.34,6.43 -4.34,12.21l0 32.44 -30.17 0 0.01 -0.01zm89.43 1.33c-6.23,0 -12.37,-0.67 -18.42,-2 -6.05,-1.33 -10.95,-3.07 -14.68,-5.2l8.28 -19.89c3.47,2.04 7.5,3.65 12.08,4.8 4.59,1.16 9.06,1.74 13.42,1.74 3.65,0 6.12,-0.31 7.41,-0.93 1.29,-0.62 1.94,-1.47 1.94,-2.53 0,-1.07 -0.76,-1.85 -2.27,-2.34 -1.51,-0.49 -3.51,-0.87 -6.01,-1.13 -2.49,-0.26 -5.23,-0.6 -8.21,-1 -2.98,-0.4 -5.98,-1 -9.01,-1.8 -3.02,-0.8 -5.78,-2 -8.28,-3.6 -2.49,-1.6 -4.5,-3.76 -6.01,-6.48 -1.51,-2.71 -2.27,-6.16 -2.27,-10.34 0,-4.62 1.4,-8.81 4.21,-12.55 2.8,-3.74 6.99,-6.74 12.55,-9.01 5.56,-2.27 12.44,-3.4 20.62,-3.4 5.34,0 10.68,0.49 16.02,1.47 5.34,0.98 9.92,2.49 13.75,4.54l-8.28 19.89c-3.74,-2.04 -7.41,-3.45 -11.01,-4.21 -3.6,-0.76 -6.97,-1.13 -10.08,-1.13 -3.83,0 -6.43,0.35 -7.81,1.07 -1.38,0.71 -2.07,1.51 -2.07,2.4 0,1.07 0.76,1.87 2.27,2.41 1.51,0.53 3.51,0.93 6.01,1.2 2.49,0.26 5.23,0.6 8.21,1 2.98,0.4 5.96,1.02 8.94,1.87 2.98,0.84 5.72,2.07 8.21,3.67 2.49,1.6 4.5,3.76 6.01,6.47 1.51,2.71 2.27,6.16 2.27,10.34 0,4.36 -1.38,8.43 -4.14,12.21 -2.76,3.78 -6.94,6.8 -12.55,9.08 -5.61,2.27 -12.64,3.4 -21.09,3.4l0.01 -0.01zm87.16 0c-8.9,0 -16.66,-1.65 -23.29,-4.94 -6.63,-3.29 -11.77,-7.81 -15.42,-13.55 -3.65,-5.74 -5.47,-12.21 -5.47,-19.42 0,-7.38 1.8,-13.92 5.41,-19.62 3.6,-5.7 8.54,-10.14 14.82,-13.35 6.27,-3.2 13.33,-4.8 21.15,-4.8 7.21,0 13.86,1.42 19.96,4.27 6.1,2.85 10.99,7.07 14.68,12.68 3.69,5.61 5.54,12.55 5.54,20.82 0,1.07 -0.04,2.24 -0.14,3.54 -0.09,1.29 -0.18,2.47 -0.27,3.54l-56.19 0 0 -14.55 40.18 0 -11.35 3.87c0,-2.85 -0.51,-5.27 -1.54,-7.27 -1.02,-2 -2.42,-3.56 -4.21,-4.67 -1.78,-1.11 -3.92,-1.67 -6.41,-1.67 -2.49,0 -4.65,0.56 -6.47,1.67 -1.83,1.11 -3.23,2.67 -4.21,4.67 -0.98,2 -1.47,4.42 -1.47,7.27l0 4.54c0,3.11 0.62,5.78 1.87,8.01 1.25,2.23 3.02,3.89 5.34,5 2.31,1.11 5.12,1.67 8.41,1.67 3.38,0 6.16,-0.44 8.34,-1.34 2.18,-0.89 4.47,-2.23 6.88,-4l15.75 15.89c-3.56,3.83 -7.94,6.74 -13.15,8.74 -5.2,2 -11.46,3 -18.75,3l-0.01 -0z"/>
   <path class="fil1" d="M524.45 100.39c-6.32,0 -12.17,-1.54 -17.55,-4.61 -5.38,-3.07 -9.68,-7.43 -12.88,-13.08 -3.2,-5.65 -4.8,-12.39 -4.8,-20.22 0,-7.83 1.6,-14.57 4.8,-20.22 3.2,-5.65 7.5,-9.99 12.88,-13.01 5.38,-3.02 11.24,-4.54 17.55,-4.54 6.41,0 11.65,1.36 15.75,4.07 4.09,2.71 7.12,6.85 9.08,12.41 1.96,5.56 2.94,12.66 2.94,21.29 0,8.72 -0.91,15.89 -2.73,21.49 -1.83,5.61 -4.76,9.74 -8.81,12.41 -4.05,2.67 -9.45,4 -16.22,4l0 0.01zm7.21 -23.49c2.23,0 4.23,-0.53 6.01,-1.6 1.78,-1.07 3.2,-2.69 4.27,-4.87 1.07,-2.18 1.6,-4.83 1.6,-7.94 0,-3.2 -0.53,-5.85 -1.6,-7.94 -1.07,-2.09 -2.49,-3.67 -4.27,-4.74 -1.78,-1.07 -3.78,-1.6 -6.01,-1.6 -2.23,0 -4.23,0.53 -6.01,1.6 -1.78,1.07 -3.2,2.65 -4.27,4.74 -1.07,2.09 -1.6,4.74 -1.6,7.94 0,3.11 0.53,5.76 1.6,7.94 1.07,2.18 2.49,3.8 4.27,4.87 1.78,1.07 3.78,1.6 6.01,1.6zm12.81 22.16l0 -9.88 -0.14 -26.7 -1.34 -26.7 0 -35.77 30.17 0 0 99.04 -28.7 0 0.01 0.01zm82.36 1.33c-8.9,0 -16.66,-1.65 -23.29,-4.94 -6.63,-3.29 -11.77,-7.81 -15.42,-13.55 -3.65,-5.74 -5.47,-12.21 -5.47,-19.42 0,-7.38 1.8,-13.92 5.41,-19.62 3.6,-5.7 8.54,-10.14 14.82,-13.35 6.27,-3.2 13.33,-4.8 21.15,-4.8 7.21,0 13.86,1.42 19.96,4.27 6.1,2.85 10.99,7.07 14.68,12.68 3.69,5.61 5.54,12.55 5.54,20.82 0,1.07 -0.04,2.24 -0.14,3.54 -0.09,1.29 -0.18,2.47 -0.27,3.54l-56.19 0 0 -14.55 40.18 0 -11.35 3.87c0,-2.85 -0.51,-5.27 -1.54,-7.27 -1.02,-2 -2.42,-3.56 -4.21,-4.67 -1.78,-1.11 -3.92,-1.67 -6.41,-1.67 -2.49,0 -4.65,0.56 -6.47,1.67 -1.83,1.11 -3.23,2.67 -4.21,4.67 -0.98,2 -1.47,4.42 -1.47,7.27l0 4.54c0,3.11 0.62,5.78 1.87,8.01 1.25,2.23 3.02,3.89 5.34,5 2.31,1.11 5.12,1.67 8.41,1.67 3.38,0 6.16,-0.44 8.34,-1.34 2.18,-0.89 4.47,-2.23 6.88,-4l15.75 15.89c-3.56,3.83 -7.94,6.74 -13.15,8.74 -5.2,2 -11.46,3 -18.76,3l-0.01 -0zm143.49 -75.68c5.52,0 10.48,1.13 14.88,3.4 4.41,2.27 7.88,5.81 10.41,10.61 2.53,4.8 3.8,11.03 3.8,18.68l0 41.65 -30.17 0 0 -36.44c0,-4.54 -0.76,-7.76 -2.27,-9.68 -1.51,-1.91 -3.47,-2.87 -5.87,-2.87 -1.78,0 -3.38,0.44 -4.8,1.33 -1.42,0.89 -2.56,2.29 -3.4,4.21 -0.85,1.91 -1.27,4.52 -1.27,7.81l0 35.64 -30.17 0 0 -36.44c0,-4.54 -0.71,-7.76 -2.14,-9.68 -1.42,-1.91 -3.43,-2.87 -6.01,-2.87 -1.78,0 -3.38,0.44 -4.8,1.33 -1.42,0.89 -2.56,2.29 -3.4,4.21 -0.85,1.91 -1.27,4.52 -1.27,7.81l0 35.64 -30.17 0 0 -73.01 28.7 0 0 20.95 -5.87 -5.87c2.76,-5.52 6.45,-9.64 11.08,-12.35 4.63,-2.71 9.79,-4.07 15.48,-4.07 6.41,0 12.08,1.67 17.02,5 4.94,3.34 8.25,8.61 9.94,15.82l-9.21 -1.47c2.67,-6.05 6.56,-10.79 11.68,-14.21 5.12,-3.43 11.06,-5.14 17.82,-5.14l-0.01 0.02zm56.86 101.58c-4.01,0 -8.08,-0.6 -12.21,-1.8 -4.14,-1.2 -7.45,-2.78 -9.94,-4.74l10.01 -20.69c1.51,1.16 3.23,2.09 5.14,2.8 1.91,0.71 3.76,1.07 5.54,1.07 2.67,0 4.71,-0.56 6.14,-1.67 1.42,-1.11 2.58,-2.78 3.47,-5l3.07 -7.74 2.14 -2.94 23.36 -59.53 28.56 0 -30.03 74.48c-2.67,6.68 -5.76,11.88 -9.27,15.62 -3.51,3.74 -7.43,6.36 -11.74,7.88 -4.32,1.51 -9.06,2.27 -14.21,2.27l-0.01 0zm7.07 -23.89l-31.77 -76.35 30.97 0 21.89 56.86 -21.09 19.49 -0.01 0z"/>
  </g>
 </g>
</svg>
