<?xml version="1.0" encoding="UTF-8"?>
<!DOCTYPE svg PUBLIC "-//W3C//DTD SVG 1.1//EN" "http://www.w3.org/Graphics/SVG/1.1/DTD/svg11.dtd">
<!-- Creator: CorelDRAW 2020 (64-Bit) -->
<svg xmlns="http://www.w3.org/2000/svg" xml:space="preserve" width="3.83851in" height="0.543106in" version="1.1" style="shape-rendering:geometricPrecision; text-rendering:geometricPrecision; image-rendering:optimizeQuality; fill-rule:evenodd; clip-rule:evenodd"
viewBox="0 0 1387.57 196.33"
 xmlns:xlink="http://www.w3.org/1999/xlink"
 xmlns:xodm="http://www.corel.com/coreldraw/odm/2003">
 <defs>
  <style type="text/css">
   <![CDATA[
    .fil1 {fill:#F2ADFE;fill-rule:nonzero}
    .fil0 {fill:white;fill-rule:nonzero}
   ]]>
  </style>
 </defs>
 <g id="Layer_x0020_1">
  <metadata id="CorelCorpID_0Corel-Layer"/>
  <g id="_1466040224592">
   <path class="fil0" d="M67.03 156.06c-13,0 -24.56,-2.49 -34.66,-7.47 -10.1,-4.98 -18.02,-11.93 -23.76,-20.86 -5.74,-8.92 -8.61,-19.13 -8.61,-30.61 0,-11.48 2.87,-21.65 8.61,-30.51 5.74,-8.86 13.66,-15.77 23.76,-20.75 10.1,-4.98 21.65,-7.47 34.66,-7.47 13.84,0 25.67,2.97 35.49,8.92 9.82,5.95 16.6,14.18 20.34,24.7l-36.32 17.85c-2.35,-5.26 -5.22,-9.06 -8.61,-11.41 -3.39,-2.35 -7.09,-3.53 -11.1,-3.53 -3.46,0 -6.68,0.83 -9.65,2.49 -2.97,1.66 -5.33,4.12 -7.06,7.37 -1.73,3.25 -2.59,7.37 -2.59,12.35 0,4.98 0.87,9.13 2.59,12.45 1.73,3.32 4.08,5.81 7.06,7.47 2.97,1.66 6.19,2.49 9.65,2.49 4.01,0 7.71,-1.18 11.1,-3.53 3.39,-2.35 6.26,-6.16 8.61,-11.41l36.32 17.85c-3.74,10.51 -10.51,18.75 -20.34,24.7 -9.82,5.95 -21.65,8.92 -35.49,8.92zm125.56 0c-12.87,0 -24.25,-2.52 -34.14,-7.57 -9.89,-5.05 -17.67,-12 -23.35,-20.86 -5.67,-8.85 -8.51,-19.02 -8.51,-30.51 0,-11.48 2.84,-21.65 8.51,-30.51 5.67,-8.86 13.45,-15.77 23.35,-20.75 9.89,-4.98 21.27,-7.47 34.14,-7.47 12.87,0 24.28,2.49 34.24,7.47 9.96,4.98 17.74,11.9 23.35,20.75 5.6,8.86 8.4,19.02 8.4,30.51 0,11.48 -2.8,21.65 -8.4,30.51 -5.6,8.86 -13.39,15.81 -23.35,20.86 -9.96,5.05 -21.38,7.57 -34.24,7.57zm0 -36.53c3.46,0 6.57,-0.83 9.34,-2.49 2.77,-1.66 4.98,-4.18 6.64,-7.57 1.66,-3.39 2.49,-7.51 2.49,-12.35 0,-4.98 -0.83,-9.1 -2.49,-12.35 -1.66,-3.25 -3.87,-5.71 -6.64,-7.37 -2.77,-1.66 -5.88,-2.49 -9.34,-2.49 -3.46,0 -6.57,0.83 -9.34,2.49 -2.77,1.66 -4.98,4.12 -6.64,7.37 -1.66,3.25 -2.49,7.37 -2.49,12.35 0,4.84 0.83,8.96 2.49,12.35 1.66,3.39 3.87,5.91 6.64,7.57 2.77,1.66 5.88,2.49 9.34,2.49zm128.05 36.53c-8.99,0 -17.12,-1.83 -24.38,-5.5 -7.26,-3.67 -12.97,-9.41 -17.12,-17.22 -4.15,-7.82 -6.22,-17.88 -6.22,-30.2l0 -62.68 46.9 0 0 54.58c0,8.03 1.31,13.63 3.94,16.81 2.63,3.18 6.23,4.77 10.79,4.77 2.77,0 5.36,-0.73 7.78,-2.18 2.42,-1.45 4.39,-3.88 5.91,-7.26 1.52,-3.39 2.28,-7.85 2.28,-13.39l0 -53.34 46.9 0 0 113.52 -44.62 0 0 -32.79 8.92 8.92c-4.01,8.86 -9.72,15.39 -17.12,19.61 -7.4,4.22 -15.39,6.33 -23.97,6.33zm97.54 -2.07l0 -113.52 44.62 0 0 34.24 -7.26 -9.75c3.46,-8.86 8.99,-15.5 16.6,-19.92 7.61,-4.43 16.74,-6.64 27.39,-6.64l0 41.51c-2.07,-0.28 -3.91,-0.48 -5.5,-0.62 -1.59,-0.14 -3.22,-0.21 -4.88,-0.21 -7.06,0 -12.83,1.83 -17.33,5.5 -4.5,3.67 -6.75,10 -6.75,18.99l0 50.43 -46.9 0zm139.05 2.07c-9.69,0 -19.23,-1.04 -28.64,-3.11 -9.41,-2.07 -17.02,-4.77 -22.83,-8.09l12.87 -30.92c5.4,3.18 11.66,5.67 18.78,7.47 7.13,1.8 14.08,2.7 20.86,2.7 5.67,0 9.51,-0.48 11.52,-1.45 2.01,-0.97 3.01,-2.28 3.01,-3.94 0,-1.66 -1.18,-2.87 -3.53,-3.63 -2.35,-0.76 -5.46,-1.35 -9.34,-1.76 -3.87,-0.41 -8.13,-0.93 -12.76,-1.56 -4.64,-0.62 -9.3,-1.56 -14.01,-2.8 -4.7,-1.25 -8.99,-3.11 -12.87,-5.6 -3.87,-2.49 -6.99,-5.84 -9.34,-10.07 -2.35,-4.22 -3.53,-9.58 -3.53,-16.08 0,-7.19 2.18,-13.7 6.54,-19.51 4.36,-5.81 10.86,-10.48 19.51,-14.01 8.65,-3.53 19.34,-5.29 32.06,-5.29 8.3,0 16.6,0.76 24.9,2.28 8.3,1.52 15.43,3.87 21.38,7.06l-12.87 30.92c-5.81,-3.18 -11.52,-5.36 -17.12,-6.54 -5.6,-1.18 -10.83,-1.76 -15.67,-1.76 -5.95,0 -10,0.55 -12.14,1.66 -2.14,1.11 -3.22,2.35 -3.22,3.73 0,1.66 1.18,2.91 3.53,3.74 2.35,0.83 5.46,1.45 9.34,1.87 3.87,0.41 8.13,0.93 12.76,1.56 4.64,0.62 9.27,1.59 13.9,2.91 4.64,1.31 8.89,3.22 12.76,5.71 3.87,2.49 6.99,5.84 9.34,10.06 2.35,4.22 3.53,9.58 3.53,16.08 0,6.78 -2.14,13.11 -6.43,18.99 -4.29,5.88 -10.79,10.58 -19.51,14.11 -8.72,3.53 -19.65,5.29 -32.79,5.29zm135.52 0c-13.84,0 -25.91,-2.56 -36.21,-7.68 -10.31,-5.12 -18.3,-12.14 -23.97,-21.06 -5.67,-8.92 -8.51,-18.99 -8.51,-30.2 0,-11.48 2.8,-21.65 8.41,-30.51 5.6,-8.86 13.28,-15.77 23.04,-20.75 9.75,-4.98 20.72,-7.47 32.89,-7.47 11.21,0 21.55,2.21 31.03,6.64 9.48,4.43 17.09,11 22.83,19.72 5.74,8.72 8.61,19.51 8.61,32.37 0,1.66 -0.07,3.49 -0.21,5.5 -0.14,2.01 -0.28,3.84 -0.42,5.5l-87.37 0 0 -22.62 62.47 0 -17.64 6.02c0,-4.43 -0.8,-8.2 -2.39,-11.31 -1.59,-3.11 -3.77,-5.53 -6.54,-7.26 -2.77,-1.73 -6.09,-2.59 -9.96,-2.59 -3.87,0 -7.23,0.87 -10.06,2.59 -2.84,1.73 -5.02,4.15 -6.54,7.26 -1.52,3.11 -2.28,6.88 -2.28,11.31l0 7.06c0,4.84 0.97,8.99 2.91,12.45 1.94,3.46 4.7,6.05 8.3,7.78 3.6,1.73 7.96,2.59 13.07,2.59 5.26,0 9.58,-0.69 12.97,-2.08 3.39,-1.38 6.95,-3.46 10.69,-6.22l24.49 24.7c-5.53,5.95 -12.35,10.48 -20.44,13.59 -8.09,3.11 -17.81,4.67 -29.16,4.67z"/>
   <path class="fil1" d="M815.4 156.06c-9.82,0 -18.92,-2.39 -27.29,-7.16 -8.37,-4.77 -15.05,-11.55 -20.03,-20.34 -4.98,-8.79 -7.47,-19.27 -7.47,-31.44 0,-12.18 2.49,-22.66 7.47,-31.44 4.98,-8.79 11.66,-15.53 20.03,-20.23 8.37,-4.7 17.47,-7.06 27.29,-7.06 9.96,0 18.12,2.11 24.49,6.33 6.36,4.22 11.07,10.65 14.11,19.3 3.04,8.65 4.57,19.68 4.57,33.1 0,13.56 -1.42,24.7 -4.25,33.41 -2.84,8.72 -7.4,15.15 -13.7,19.3 -6.3,4.15 -14.7,6.22 -25.22,6.22zm11.21 -36.53c3.46,0 6.57,-0.83 9.34,-2.49 2.77,-1.66 4.98,-4.18 6.64,-7.57 1.66,-3.39 2.49,-7.51 2.49,-12.35 0,-4.98 -0.83,-9.1 -2.49,-12.35 -1.66,-3.25 -3.87,-5.71 -6.64,-7.37 -2.77,-1.66 -5.88,-2.49 -9.34,-2.49 -3.46,0 -6.57,0.83 -9.34,2.49 -2.77,1.66 -4.98,4.12 -6.64,7.37 -1.66,3.25 -2.49,7.37 -2.49,12.35 0,4.84 0.83,8.96 2.49,12.35 1.66,3.39 3.87,5.91 6.64,7.57 2.77,1.66 5.88,2.49 9.34,2.49zm19.92 34.45l0 -15.36 -0.21 -41.51 -2.08 -41.51 0 -55.62 46.9 0 0 153.99 -44.62 0zm128.05 2.07c-13.84,0 -25.91,-2.56 -36.21,-7.68 -10.31,-5.12 -18.3,-12.14 -23.97,-21.06 -5.67,-8.92 -8.51,-18.99 -8.51,-30.2 0,-11.48 2.8,-21.65 8.41,-30.51 5.6,-8.86 13.28,-15.77 23.04,-20.75 9.75,-4.98 20.72,-7.47 32.89,-7.47 11.21,0 21.55,2.21 31.03,6.64 9.48,4.43 17.09,11 22.83,19.72 5.74,8.72 8.61,19.51 8.61,32.37 0,1.66 -0.07,3.49 -0.21,5.5 -0.14,2.01 -0.28,3.84 -0.42,5.5l-87.37 0 0 -22.62 62.47 0 -17.64 6.02c0,-4.43 -0.8,-8.2 -2.39,-11.31 -1.59,-3.11 -3.77,-5.53 -6.54,-7.26 -2.77,-1.73 -6.09,-2.59 -9.96,-2.59 -3.87,0 -7.23,0.87 -10.06,2.59 -2.84,1.73 -5.02,4.15 -6.54,7.26 -1.52,3.11 -2.28,6.88 -2.28,11.31l0 7.06c0,4.84 0.97,8.99 2.91,12.45 1.94,3.46 4.7,6.05 8.3,7.78 3.6,1.73 7.96,2.59 13.07,2.59 5.26,0 9.58,-0.69 12.97,-2.08 3.39,-1.38 6.95,-3.46 10.69,-6.22l24.49 24.7c-5.53,5.95 -12.35,10.48 -20.44,13.59 -8.09,3.11 -17.81,4.67 -29.16,4.67zm223.1 -117.67c8.58,0 16.29,1.76 23.14,5.29 6.85,3.53 12.25,9.03 16.19,16.5 3.94,7.47 5.91,17.15 5.91,29.05l0 64.75 -46.9 0 0 -56.66c0,-7.06 -1.18,-12.07 -3.53,-15.05 -2.35,-2.97 -5.4,-4.46 -9.13,-4.46 -2.77,0 -5.26,0.69 -7.47,2.07 -2.21,1.38 -3.98,3.56 -5.29,6.54 -1.32,2.97 -1.97,7.02 -1.97,12.14l0 55.41 -46.9 0 0 -56.66c0,-7.06 -1.11,-12.07 -3.32,-15.05 -2.21,-2.97 -5.33,-4.46 -9.34,-4.46 -2.77,0 -5.26,0.69 -7.47,2.07 -2.21,1.38 -3.98,3.56 -5.29,6.54 -1.32,2.97 -1.97,7.02 -1.97,12.14l0 55.41 -46.9 0 0 -113.52 44.62 0 0 32.58 -9.13 -9.13c4.29,-8.58 10.03,-14.98 17.22,-19.2 7.2,-4.22 15.22,-6.33 24.07,-6.33 9.96,0 18.78,2.59 26.46,7.78 7.68,5.19 12.83,13.39 15.46,24.59l-14.32 -2.28c4.15,-9.41 10.2,-16.78 18.16,-22.1 7.96,-5.33 17.19,-7.99 27.71,-7.99zm88.41 157.93c-6.23,0 -12.56,-0.93 -18.99,-2.8 -6.43,-1.87 -11.59,-4.32 -15.46,-7.37l15.57 -32.17c2.35,1.8 5.02,3.25 7.99,4.36 2.97,1.11 5.85,1.66 8.61,1.66 4.15,0 7.33,-0.87 9.55,-2.59 2.21,-1.73 4.01,-4.32 5.4,-7.78l4.77 -12.04 3.32 -4.57 36.32 -92.56 44.41 0 -46.69 115.8c-4.15,10.38 -8.96,18.47 -14.42,24.28 -5.46,5.81 -11.55,9.89 -18.26,12.25 -6.71,2.35 -14.08,3.53 -22.1,3.53zm11 -37.15l-49.39 -118.71 48.15 0 34.04 88.41 -32.79 30.3z"/>
  </g>
 </g>
</svg>
